<?xml version="1.0" encoding="UTF-8"?>
<svg id="Layer_1" xmlns="http://www.w3.org/2000/svg" version="1.1" viewBox="0 0 302.4 302.4">
  <!-- Generator: Adobe Illustrator 29.2.1, SVG Export Plug-In . SVG Version: 2.1.0 Build 116)  -->
  <defs>
    <style>
      .st0 {
        fill: none;
        stroke: #fff;
        stroke-miterlimit: 10;
        stroke-width: 3px;
      }

      .st1 {
        fill: #fff;
      }
    </style>
  </defs>
  <circle class="st0" cx="151.15" cy="150.85" r="149.52"/>
  <g>
    <path class="st1" d="M184.76,67.4c11.12,2.88,22.45,13.54,25.57,24.62,3.43,12.16,2.65,64.06,1.5,78.67-2.57,32.71-37.63,46.4-60.42,63.27l-2.17.33c-23.27-16.8-56.51-30.69-59.12-63.61-1.98-24.95,1.35-52.69.27-77.92.82-4.7,6.52-9.83,11.2-10.55,21.27-3.28,55.12,5.95,73.52-5.59,3.92-2.46,6.82-5.61,9.64-9.22ZM103.02,131.6h30.65v-6.93c-10.27-.33-20.45.24-30.66.99v5.94ZM198.94,124.67h-31.15c-2.23,1.6-1.41,4.52-1.48,6.92h32.63v-6.92ZM138.48,163.4c-11.78-1.13-2.02,11.44,4.4,13.89,11.36,4.33,21.46-.23,25.42-11.63l-1.63-2.29c-6.21-1.83-5.32,5.31-9.87,7.66-6.74,3.47-16.47-.05-18.31-7.63Z"/>
    <path class="st1" d="M70.39,126.65v-35.1c0-3.28,7.25-19.65,9.36-23.27,18.53-31.83,65.56-49.7,99.97-34.64,3.34,1.46,3.12,2.07,3.46,5.44,5.34,53.05-53.97,33.35-86.56,37.16-16.63,7.66-13.11,23.66-13.53,38.88l-12.69,11.53Z"/>
    <path class="st1" d="M120.82,256.69c-.31-1.11-3.83-2.74-4.94-3.96-2.21-2.43-16.29-20.39-16.63-21.99l5.75-18.05,38.42,26.18c-6.81,9.55-7.68,19.8-1.84,30.18l-20.77,1.99v-14.34Z"/>
    <path class="st1" d="M231.57,126.65l-12.87-10.59c3.35-24.88-6.93-45.09-30.21-54.67-1.06-1.71,1.55-6,1.55-7.42v-15.33c14.9,6.95,28.7,21.25,35.46,36.24,1.1,2.45,6.07,16,6.07,17.66v34.12Z"/>
    <path class="st1" d="M179.16,270.53c-.74.98-.86,1.11-2.03,1.09-5.06-.05-13.26-3.22-18.73-3.58,4.6-9.72,3.89-20.09-1.86-29.18l38.44-26.18,4.8,18.06c-5.57,6.74-10.32,15.07-16.14,21.51-1.7,1.88-4.47,2.68-4.47,2.95v15.33Z"/>
    <path class="st1" d="M83.24,171.15c-4.28.18-10.31-6.13-11.42-9.85s-.93-19.09-.51-23.34c.61-6.18,7.46-9.61,11.93-13.29v46.48Z"/>
    <path class="st1" d="M218.72,171.15v-46.48c4.8,4.95,11.22,6.76,11.91,14.29,1.03,11.21,2.15,29.48-11.91,32.19Z"/>
    <path class="st1" d="M149.99,242.37c5.1,2.49,5.92,18.55,3.48,21.26-8.43,9.35-13.08-17.57-3.48-21.26Z"/>
  </g>
</svg>